<svg xmlns="http://www.w3.org/2000/svg" width="1024" height="1024" viewBox="0 0 1024 1024" version="1.1"><path d="M 493 257.418 C 473.391 262.109, 457.531 272.084, 445.091 287.547 C 436.795 297.860, 434.206 303.325, 425.049 329.856 C 420.750 342.310, 416.015 355.875, 414.528 360 C 413.040 364.125, 409.659 373.575, 407.016 381 C 404.372 388.425, 400.186 400.125, 397.715 407 C 395.243 413.875, 390.963 425.800, 388.203 433.500 C 385.444 441.200, 381.314 452.675, 379.026 459 C 376.739 465.325, 372.245 477.925, 369.040 487 C 365.836 496.075, 362.518 505.300, 361.667 507.500 C 360.817 509.700, 356.232 522.525, 351.479 536 C 343.390 558.931, 338.462 572.608, 334.003 584.500 C 332.972 587.250, 330.261 594.675, 327.978 601 C 325.695 607.325, 322.981 614.750, 321.948 617.500 C 320.915 620.250, 317.172 630.600, 313.629 640.500 C 310.087 650.400, 306.502 660.300, 305.663 662.500 C 304.824 664.700, 300.996 675.275, 297.156 686 C 293.315 696.725, 288.059 711.350, 285.474 718.500 C 282.889 725.650, 279.519 735.100, 277.984 739.500 C 274.095 750.647, 265.341 775.139, 264.491 777.250 C 263.833 778.884, 265.213 779, 285.393 779 C 297.277 779, 307 778.867, 307 778.704 C 307 777.787, 328.849 716.003, 344.026 674 C 346.908 666.025, 351.389 653.195, 353.984 645.488 C 356.579 637.782, 359.500 629.907, 360.476 627.988 C 364.987 619.114, 373.083 611.904, 382.500 608.374 C 387.265 606.588, 393.470 606.476, 514.500 606 C 641.500 605.500, 641.500 605.500, 648.500 602.580 C 657.596 598.785, 662.554 595.363, 668.709 588.628 C 673.831 583.024, 679.244 573.074, 680.339 567.250 C 680.950 564, 680.950 564, 534.225 563.882 C 453.526 563.816, 387.163 563.816, 386.750 563.882 C 386.337 563.947, 386 563.375, 386 562.611 C 386 561.211, 392.469 541.760, 396.014 532.500 C 397.067 529.750, 400.229 520.975, 403.040 513 C 405.851 505.025, 409.883 493.775, 412 488 C 414.118 482.225, 418.416 470.300, 421.552 461.500 C 424.688 452.700, 428.949 440.775, 431.021 435 C 449.586 383.252, 454.826 368.544, 461.127 350.500 C 470.648 323.235, 474.538 316.905, 486.630 308.991 C 495.438 303.226, 502.280 301.599, 515.317 302.169 C 523.798 302.540, 525.556 302.971, 532.406 306.356 C 541.067 310.637, 549.164 318.211, 553.401 325.996 C 554.878 328.709, 558.044 336.457, 560.438 343.214 C 567.443 362.991, 587.935 419.319, 588.918 421.500 C 589.413 422.600, 590.087 424.330, 590.414 425.345 C 590.930 426.942, 591.804 426.501, 596.931 422.060 C 606.422 413.838, 612.698 403.107, 615.071 391.044 C 616.568 383.435, 615.087 372.918, 610.980 362 C 604.997 346.091, 600.607 334.012, 596.263 321.500 C 590.472 304.819, 586.538 297.067, 579.145 287.764 C 572.508 279.411, 562.438 270.640, 560.657 271.659 C 560.021 272.023, 559.835 271.951, 560.244 271.500 C 561.792 269.792, 546.193 261.662, 535.790 258.756 C 526.549 256.174, 501.475 255.390, 493 257.418 M 713.046 659.255 C 711.465 666.490, 710.852 668.202, 706.690 677 C 703.306 684.155, 699.502 689.479, 693.671 695.223 C 689.936 698.903, 689.872 699.085, 691.049 702.747 C 694.574 713.711, 712.602 763.418, 713.918 765.801 C 714.417 766.704, 716.954 764.677, 722.206 759.180 C 735.995 744.747, 740.782 728.765, 736.443 711.644 C 734.373 703.477, 716.659 655.418, 715.106 653.755 C 714.723 653.345, 713.796 655.820, 713.046 659.255" stroke="none" fill="#f2ae1b" fill-rule="evenodd"/></svg>