<svg xmlns="http://www.w3.org/2000/svg" width="1024" height="1024" viewBox="0 0 1024 1024" version="1.1"><path d="M 486.790 201.941 C 447.392 209.520, 413.711 232.582, 390.225 268.061 C 381.037 281.940, 380.655 282.856, 359.150 342.500 C 333.557 413.479, 332.658 415.989, 316.407 461.750 C 298.997 510.776, 294.558 523.224, 288.505 540 C 284.834 550.175, 279.654 564.575, 276.995 572 C 274.335 579.425, 268.022 596.975, 262.966 611 C 254.152 635.450, 243.050 666.647, 223.998 720.500 C 219.134 734.250, 210.620 758.270, 205.077 773.878 C 195.260 801.524, 193.906 807.087, 196.030 811.055 C 198.749 816.136, 196.014 816, 295.302 816 C 387.704 816, 387.704 816, 391.048 813.747 C 392.887 812.507, 395.232 810.054, 396.259 808.295 C 397.287 806.537, 403.061 791.013, 409.090 773.799 C 415.120 756.584, 421.892 737.435, 424.138 731.244 C 428.222 719.989, 428.222 719.989, 512.266 720.244 C 596.309 720.500, 596.309 720.500, 598.062 725.500 C 609.911 759.296, 624.156 799.436, 625.566 803 C 627.713 808.426, 630.237 811.857, 633.823 814.222 C 636.333 815.876, 642.275 815.987, 728.800 815.993 C 809.354 815.999, 821.473 815.807, 824.033 814.483 C 827.143 812.875, 830 808.400, 830 805.137 C 830 803.231, 821.882 779.703, 800.970 721 C 795.386 705.325, 789.095 687.550, 786.990 681.500 C 783.125 670.393, 748.623 574.184, 744.852 564 C 743.732 560.975, 738.174 545.450, 732.502 529.500 C 726.830 513.550, 721.490 498.700, 720.635 496.500 C 719.233 492.888, 714.424 479.410, 690.310 411.500 C 686.209 399.950, 678.124 377.450, 672.343 361.500 C 666.562 345.550, 658.657 323.725, 654.775 313 C 646.526 290.207, 643.097 282.418, 636.500 271.500 C 615.455 236.664, 584.018 213.325, 544.729 203.366 C 530.633 199.794, 501.659 199.081, 486.790 201.941 M 494 257.499 C 474.288 261.475, 457.525 272.117, 443.840 289.345 C 437.118 297.808, 433.316 305.951, 426.023 327.500 C 422.115 339.050, 417.837 351.425, 416.518 355 C 413.752 362.493, 396.847 409.557, 390.301 427.987 C 387.862 434.855, 382.922 448.580, 379.322 458.487 C 375.723 468.394, 370.410 483.250, 367.516 491.500 C 359.148 515.349, 346.439 550.808, 338.485 572.500 C 334.451 583.500, 329.069 598.350, 326.524 605.500 C 323.980 612.650, 321.270 620.075, 320.503 622 C 319.736 623.925, 317.014 631.350, 314.455 638.500 C 311.896 645.650, 305.082 664.550, 299.313 680.500 C 293.544 696.450, 284.351 722.100, 278.884 737.500 C 273.416 752.900, 267.841 768.538, 266.493 772.250 C 264.042 779, 264.042 779, 285.382 779 C 306.721 779, 306.721 779, 313.744 758.750 C 320.091 740.448, 332.570 705.429, 344.655 672 C 347.141 665.125, 351.211 653.425, 353.701 646 C 356.190 638.575, 359.363 630.255, 360.752 627.511 C 364.387 620.326, 373.586 611.710, 380.672 608.851 C 386.500 606.500, 386.500 606.500, 513.500 605.976 C 609.694 605.579, 641.342 605.156, 643.970 604.233 C 658.875 598.995, 670.348 589.292, 676.295 576.895 C 678.246 572.828, 680.111 568.263, 680.440 566.750 C 681.038 564, 681.038 564, 533.686 564 C 452.642 564, 386.092 563.758, 385.796 563.463 C 385.501 563.168, 385.910 561.030, 386.704 558.713 C 391.567 544.538, 403.064 512.263, 418.485 469.500 C 428.204 442.550, 439.511 411.050, 443.612 399.500 C 470.419 324.002, 468.551 328.900, 473.174 321.977 C 478.119 314.573, 483.627 309.802, 491.979 305.690 C 498.258 302.598, 498.860 302.500, 511.479 302.500 C 524.126 302.500, 524.700 302.595, 531.443 305.788 C 545.638 312.510, 553.165 321.852, 559.813 341 C 565.070 356.141, 581.994 402.654, 587.180 416.213 C 591.277 426.926, 591.277 426.926, 595.451 423.213 C 610.670 409.674, 617.052 394.867, 614.935 378.008 C 614.434 374.019, 611.153 363.320, 606.637 350.955 C 602.530 339.705, 597.510 325.775, 595.483 320 C 588.870 301.158, 583.043 291.154, 572.592 280.704 C 556.169 264.280, 535.236 255.921, 511 256.107 C 505.225 256.152, 497.575 256.778, 494 257.499 M 508.302 438.012 C 507.094 438.499, 505.382 440.295, 504.498 442.003 C 502.356 446.147, 478 516.194, 478 518.213 C 478 518.646, 493.525 519, 512.500 519 C 541.178 519, 547 518.767, 547 517.619 C 547 516.860, 545.832 513.147, 544.406 509.369 C 542.979 505.591, 537.369 490.060, 531.940 474.856 C 520.368 442.450, 519.647 440.813, 515.981 438.648 C 512.886 436.820, 511.540 436.708, 508.302 438.012 M 713.209 660.250 C 711.540 669.375, 703.345 685.113, 696.171 692.969 C 691.048 698.580, 690.372 699.772, 691.073 701.969 C 691.517 703.361, 692.593 706.750, 693.464 709.500 C 694.335 712.250, 697.462 721.025, 700.413 729 C 703.364 736.975, 707.696 748.837, 710.038 755.359 C 714.298 767.218, 714.298 767.218, 721.399 759.816 C 729.529 751.342, 734.461 743.162, 733.500 739.744 C 733.037 738.097, 733.130 737.878, 733.850 738.922 C 734.602 740.012, 735.068 739.429, 735.851 736.422 C 739.730 721.507, 738.549 715.901, 722.272 672 C 716.249 655.757, 715.533 654, 714.934 654 C 714.615 654, 713.838 656.813, 713.209 660.250" stroke="none" fill="#172e40" fill-rule="evenodd"/><path d="M 0 512.001 C 0 1024.002, 0 1024.002, 512.250 1023.751 C 1024.500 1023.500, 1024.500 1023.500, 1024.751 511.750 C 1025.002 0, 1025.002 0, 512.501 0 C 0 0, 0 0, 0 512.001 M 0.496 512.500 C 0.496 794.100, 0.610 909.151, 0.750 768.168 C 0.890 627.186, 0.890 396.786, 0.750 256.168 C 0.610 115.551, 0.496 230.900, 0.496 512.500 M 486.790 201.941 C 447.392 209.520, 413.711 232.582, 390.225 268.061 C 381.037 281.940, 380.655 282.856, 359.150 342.500 C 333.557 413.479, 332.658 415.989, 316.407 461.750 C 298.997 510.776, 294.558 523.224, 288.505 540 C 284.834 550.175, 279.654 564.575, 276.995 572 C 274.335 579.425, 268.022 596.975, 262.966 611 C 254.152 635.450, 243.050 666.647, 223.998 720.500 C 219.134 734.250, 210.620 758.270, 205.077 773.878 C 195.260 801.524, 193.906 807.087, 196.030 811.055 C 198.749 816.136, 196.014 816, 295.302 816 C 387.704 816, 387.704 816, 391.048 813.747 C 392.887 812.507, 395.232 810.054, 396.259 808.295 C 397.287 806.537, 403.061 791.013, 409.090 773.799 C 415.120 756.584, 421.892 737.435, 424.138 731.244 C 428.222 719.989, 428.222 719.989, 512.266 720.244 C 596.309 720.500, 596.309 720.500, 598.062 725.500 C 609.911 759.296, 624.156 799.436, 625.566 803 C 627.713 808.426, 630.237 811.857, 633.823 814.222 C 636.333 815.876, 642.275 815.987, 728.800 815.993 C 809.354 815.999, 821.473 815.807, 824.033 814.483 C 827.143 812.875, 830 808.400, 830 805.137 C 830 803.231, 821.882 779.703, 800.970 721 C 795.386 705.325, 789.095 687.550, 786.990 681.500 C 783.125 670.393, 748.623 574.184, 744.852 564 C 743.732 560.975, 738.174 545.450, 732.502 529.500 C 726.830 513.550, 721.490 498.700, 720.635 496.500 C 719.233 492.888, 714.424 479.410, 690.310 411.500 C 686.209 399.950, 678.124 377.450, 672.343 361.500 C 666.562 345.550, 658.657 323.725, 654.775 313 C 646.526 290.207, 643.097 282.418, 636.500 271.500 C 615.455 236.664, 584.018 213.325, 544.729 203.366 C 530.633 199.794, 501.659 199.081, 486.790 201.941 M 494 257.499 C 474.288 261.475, 457.525 272.117, 443.840 289.345 C 437.118 297.808, 433.316 305.951, 426.023 327.500 C 422.115 339.050, 417.837 351.425, 416.518 355 C 413.752 362.493, 396.847 409.557, 390.301 427.987 C 387.862 434.855, 382.922 448.580, 379.322 458.487 C 375.723 468.394, 370.410 483.250, 367.516 491.500 C 359.148 515.349, 346.439 550.808, 338.485 572.500 C 334.451 583.500, 329.069 598.350, 326.524 605.500 C 323.980 612.650, 321.270 620.075, 320.503 622 C 319.736 623.925, 317.014 631.350, 314.455 638.500 C 311.896 645.650, 305.082 664.550, 299.313 680.500 C 293.544 696.450, 284.351 722.100, 278.884 737.500 C 273.416 752.900, 267.841 768.538, 266.493 772.250 C 264.042 779, 264.042 779, 285.382 779 C 306.721 779, 306.721 779, 313.744 758.750 C 320.091 740.448, 332.570 705.429, 344.655 672 C 347.141 665.125, 351.211 653.425, 353.701 646 C 356.190 638.575, 359.363 630.255, 360.752 627.511 C 364.387 620.326, 373.586 611.710, 380.672 608.851 C 386.500 606.500, 386.500 606.500, 513.500 605.976 C 609.694 605.579, 641.342 605.156, 643.970 604.233 C 658.875 598.995, 670.348 589.292, 676.295 576.895 C 678.246 572.828, 680.111 568.263, 680.440 566.750 C 681.038 564, 681.038 564, 533.686 564 C 452.642 564, 386.092 563.758, 385.796 563.463 C 385.501 563.168, 385.910 561.030, 386.704 558.713 C 391.567 544.538, 403.064 512.263, 418.485 469.500 C 428.204 442.550, 439.511 411.050, 443.612 399.500 C 470.419 324.002, 468.551 328.900, 473.174 321.977 C 478.119 314.573, 483.627 309.802, 491.979 305.690 C 498.258 302.598, 498.860 302.500, 511.479 302.500 C 524.126 302.500, 524.700 302.595, 531.443 305.788 C 545.638 312.510, 553.165 321.852, 559.813 341 C 565.070 356.141, 581.994 402.654, 587.180 416.213 C 591.277 426.926, 591.277 426.926, 595.451 423.213 C 610.670 409.674, 617.052 394.867, 614.935 378.008 C 614.434 374.019, 611.153 363.320, 606.637 350.955 C 602.530 339.705, 597.510 325.775, 595.483 320 C 588.870 301.158, 583.043 291.154, 572.592 280.704 C 556.169 264.280, 535.236 255.921, 511 256.107 C 505.225 256.152, 497.575 256.778, 494 257.499 M 508.302 438.012 C 507.094 438.499, 505.382 440.295, 504.498 442.003 C 502.356 446.147, 478 516.194, 478 518.213 C 478 518.646, 493.525 519, 512.500 519 C 541.178 519, 547 518.767, 547 517.619 C 547 516.860, 545.832 513.147, 544.406 509.369 C 542.979 505.591, 537.369 490.060, 531.940 474.856 C 520.368 442.450, 519.647 440.813, 515.981 438.648 C 512.886 436.820, 511.540 436.708, 508.302 438.012 M 713.209 660.250 C 711.540 669.375, 703.345 685.113, 696.171 692.969 C 691.048 698.580, 690.372 699.772, 691.073 701.969 C 691.517 703.361, 692.593 706.750, 693.464 709.500 C 694.335 712.250, 697.462 721.025, 700.413 729 C 703.364 736.975, 707.696 748.837, 710.038 755.359 C 714.298 767.218, 714.298 767.218, 721.399 759.816 C 729.529 751.342, 734.461 743.162, 733.500 739.744 C 733.037 738.097, 733.130 737.878, 733.850 738.922 C 734.602 740.012, 735.068 739.429, 735.851 736.422 C 739.730 721.507, 738.549 715.901, 722.272 672 C 716.249 655.757, 715.533 654, 714.934 654 C 714.615 654, 713.838 656.813, 713.209 660.250" stroke="none" fill="#fbfbfb" fill-rule="evenodd"/></svg>